# xmcd
#
# Track frame offsets:
# 150
# 14993
# 32291
# 49210
# 66163
# 82061
#
# Disc length: 1299 seconds
#
#
# Revision: 0
# Processed by: cddbd v1.5.2PL0 Copyright (c) Steve Scherf et al.
# Submitted via: FreeRIP 2.945 
#
DISCID=4d051106
DTITLE=ADAM HARVEY - I`M DOIN` ALRIGHT
DYEAR=1900
DGENRE=
TTITLE0=A Bigger Man
TTITLE1=A Better Man
TTITLE2=Way Too Fast
TTITLE3=You`d Do The Same For Me
TTITLE4=Forever Is As Far As I`ll Go
TTITLE5=Where I Come From
EXTD=
EXTT0=
EXTT1=
EXTT2=
EXTT3=
EXTT4=
EXTT5=
PLAYORDER=
